<mxfile host="app.diagrams.net" modified="2023-05-11T20:31:38.999Z" agent="Mozilla/5.0 (Macintosh; Intel Mac OS X 10_15_7) AppleWebKit/537.36 (KHTML, like Gecko) Chrome/112.0.0.0 Safari/537.36" etag="LUIn4PomrSEfZCRq4PTc" version="21.2.9" type="google">
  <diagram id="R2lEEEUBdFMjLlhIrx00" name="Page-1">
    <mxGraphModel grid="1" page="1" gridSize="10" guides="1" tooltips="1" connect="1" arrows="1" fold="1" pageScale="1" pageWidth="850" pageHeight="1100" math="0" shadow="0" extFonts="Permanent Marker^https://fonts.googleapis.com/css?family=Permanent+Marker">
      <root>
        <mxCell id="0" />
        <mxCell id="1" parent="0" />
        <mxCell id="fWPC0qYkjax7AVKpIV95-4" value="User" style="swimlane;childLayout=stackLayout;horizontal=1;startSize=50;horizontalStack=0;rounded=1;fontSize=14;fontStyle=0;strokeWidth=2;resizeParent=0;resizeLast=1;shadow=0;dashed=0;align=center;arcSize=4;whiteSpace=wrap;html=1;" vertex="1" parent="1">
          <mxGeometry x="110" y="160" width="140" height="150" as="geometry">
            <mxRectangle x="110" y="160" width="120" height="110" as="alternateBounds" />
          </mxGeometry>
        </mxCell>
        <mxCell id="fWPC0qYkjax7AVKpIV95-5" value="+email&lt;br&gt;+name&lt;br&gt;+password&lt;br&gt;+is_staff&lt;br&gt;+is_account_owner" style="align=left;strokeColor=none;fillColor=none;spacingLeft=4;fontSize=12;verticalAlign=top;resizable=0;rotatable=0;part=1;html=1;" vertex="1" parent="fWPC0qYkjax7AVKpIV95-4">
          <mxGeometry y="50" width="140" height="100" as="geometry" />
        </mxCell>
        <mxCell id="fWPC0qYkjax7AVKpIV95-6" value="Profile" style="swimlane;childLayout=stackLayout;horizontal=1;startSize=50;horizontalStack=0;rounded=1;fontSize=14;fontStyle=0;strokeWidth=2;resizeParent=0;resizeLast=1;shadow=0;dashed=0;align=center;arcSize=4;whiteSpace=wrap;html=1;" vertex="1" parent="1">
          <mxGeometry x="110" y="360" width="140" height="120" as="geometry" />
        </mxCell>
        <mxCell id="fWPC0qYkjax7AVKpIV95-7" value="+Attribute1&#xa;+Attribute2&#xa;+Attribute3" style="align=left;strokeColor=none;fillColor=none;spacingLeft=4;fontSize=12;verticalAlign=top;resizable=0;rotatable=0;part=1;html=1;" vertex="1" parent="fWPC0qYkjax7AVKpIV95-6">
          <mxGeometry y="50" width="140" height="70" as="geometry" />
        </mxCell>
        <mxCell id="fWPC0qYkjax7AVKpIV95-8" value="Account" style="swimlane;childLayout=stackLayout;horizontal=1;startSize=50;horizontalStack=0;rounded=1;fontSize=14;fontStyle=0;strokeWidth=2;resizeParent=0;resizeLast=1;shadow=0;dashed=0;align=center;arcSize=4;whiteSpace=wrap;html=1;" vertex="1" parent="1">
          <mxGeometry x="360" y="175" width="160" height="120" as="geometry">
            <mxRectangle x="360" y="175" width="90" height="50" as="alternateBounds" />
          </mxGeometry>
        </mxCell>
        <mxCell id="fWPC0qYkjax7AVKpIV95-9" value="+owner" style="align=left;strokeColor=none;fillColor=none;spacingLeft=4;fontSize=12;verticalAlign=top;resizable=0;rotatable=0;part=1;html=1;" vertex="1" parent="fWPC0qYkjax7AVKpIV95-8">
          <mxGeometry y="50" width="160" height="70" as="geometry" />
        </mxCell>
        <mxCell id="fWPC0qYkjax7AVKpIV95-11" value="" style="edgeStyle=entityRelationEdgeStyle;fontSize=12;html=1;endArrow=ERzeroToOne;startArrow=ERoneToMany;rounded=0;exitX=1;exitY=0.32;exitDx=0;exitDy=0;entryX=0;entryY=0.25;entryDx=0;entryDy=0;exitPerimeter=0;startFill=0;" edge="1" parent="1" source="fWPC0qYkjax7AVKpIV95-5" target="fWPC0qYkjax7AVKpIV95-9">
          <mxGeometry width="100" height="100" relative="1" as="geometry">
            <mxPoint x="290" y="450" as="sourcePoint" />
            <mxPoint x="390" y="350" as="targetPoint" />
          </mxGeometry>
        </mxCell>
      </root>
    </mxGraphModel>
  </diagram>
</mxfile>
